<?xml version="1.0" encoding="utf-8" ?>
<svg xmlns="http://www.w3.org/2000/svg" xmlns:ev="http://www.w3.org/2001/xml-events" xmlns:xlink="http://www.w3.org/1999/xlink" baseProfile="full" height="1024" version="1.1" viewBox="0 0 1536 1024" width="1536">
  <defs/>
  <rect fill="#fbfbfa" height="1024" width="1536" x="0" y="0"/>
  <text fill="#081d4f" font-family="DejaVu Serif" font-size="74" font-weight="normal" text-anchor="middle" x="768.0" y="82">Specification Grammar</text>
  <g fill="none" stroke="#081d4f" stroke-linecap="round" stroke-linejoin="round" stroke-width="3">
    <path d="M 76,158 H 114 L 132,177 V 246 H 76 Z"/>
    <path d="M 114,158 V 177 H 132"/>
    <line x1="90" x2="118" y1="187" y2="187"/>
    <line x1="90" x2="118" y1="202" y2="202"/>
    <line x1="90" x2="118" y1="217" y2="217"/>
  </g>
  <text fill="#081d4f" font-family="DejaVu Sans" font-size="31" font-weight="bold" text-anchor="middle" x="272" y="188">Leading</text>
  <text fill="#081d4f" font-family="DejaVu Sans" font-size="31" font-weight="bold" text-anchor="middle" x="272" y="232">Specifications</text>
  <text fill="#0b1835" font-family="DejaVu Sans" font-size="25" font-weight="normal" text-anchor="start" x="480" y="174">Leading specifications</text>
  <text fill="#081d4f" font-family="DejaVu Sans" font-size="25" font-weight="bold" text-anchor="start" x="480" y="207">specify</text>
  <text fill="#0b1835" font-family="DejaVu Sans" font-size="25" font-weight="normal" text-anchor="start" x="480" y="240">engineering objects.</text>
  <text fill="#081d4f" font-family="DejaVu Serif" font-size="45" font-weight="normal" style="font-style:italic" text-anchor="middle" x="900" y="212">L → O</text>
  <text fill="#081d4f" font-family="DejaVu Sans" font-size="29" font-weight="normal" text-anchor="start" x="1110" y="192">Context and</text>
  <text fill="#081d4f" font-family="DejaVu Sans" font-size="29" font-weight="normal" text-anchor="start" x="1110" y="232">Objective</text>
  <g fill="none" stroke="#081d4f" stroke-linecap="round" stroke-linejoin="round" stroke-width="3">
    <circle cx="1410" cy="202" r="42"/>
    <circle cx="1410" cy="202" r="24"/>
    <circle cx="1410" cy="202" r="8"/>
    <line x1="1360" x2="1378" y1="202" y2="202"/>
    <line x1="1442" x2="1460" y1="202" y2="202"/>
    <line x1="1410" x2="1410" y1="152" y2="170"/>
    <line x1="1410" x2="1410" y1="234" y2="252"/>
  </g>
  <line opacity="0.78" stroke="#0b5c1e" stroke-width="1.4" x1="38" x2="1498" y1="286" y2="286"/>
  <g fill="none" stroke="#0b5c1e" stroke-linecap="round" stroke-linejoin="round" stroke-width="3">
    <polygon points="104,318 142,341 142,391 104,414 66,391 66,341"/>
    <line x1="104" x2="104" y1="318" y2="414"/>
    <line x1="66" x2="104" y1="341" y2="366"/>
    <line x1="142" x2="104" y1="341" y2="366"/>
  </g>
  <text fill="#0b5c1e" font-family="DejaVu Sans" font-size="31" font-weight="bold" text-anchor="middle" x="272" y="352">Engineering</text>
  <text fill="#0b5c1e" font-family="DejaVu Sans" font-size="31" font-weight="bold" text-anchor="middle" x="272" y="396">Objects</text>
  <text fill="#0b1835" font-family="DejaVu Sans" font-size="25" font-weight="normal" text-anchor="start" x="480" y="338">Engineering objects</text>
  <text fill="#0b5c1e" font-family="DejaVu Sans" font-size="25" font-weight="bold" text-anchor="start" x="480" y="371">specify</text>
  <text fill="#0b1835" font-family="DejaVu Sans" font-size="25" font-weight="normal" text-anchor="start" x="480" y="404">engineering variables.</text>
  <text fill="#0b5c1e" font-family="DejaVu Serif" font-size="45" font-weight="normal" style="font-style:italic" text-anchor="middle" x="900" y="376">O → V</text>
  <text fill="#0b5c1e" font-family="DejaVu Sans" font-size="29" font-weight="normal" text-anchor="start" x="1110" y="356">Structure and</text>
  <text fill="#0b5c1e" font-family="DejaVu Sans" font-size="29" font-weight="normal" text-anchor="start" x="1110" y="396">Integration</text>
  <g fill="none" stroke="#0b5c1e" stroke-linecap="round" stroke-linejoin="round" stroke-width="3">
    <circle cx="1410" cy="332" r="16"/>
    <circle cx="1382" cy="394" r="16"/>
    <circle cx="1438" cy="394" r="16"/>
    <line x1="1410" x2="1390" y1="348" y2="380"/>
    <line x1="1410" x2="1430" y1="348" y2="380"/>
    <line x1="1398" x2="1422" y1="394" y2="394"/>
  </g>
  <line opacity="0.78" stroke="#d94b00" stroke-width="1.4" x1="38" x2="1498" y1="450" y2="450"/>
  <g fill="none" stroke="#d94b00" stroke-linecap="round" stroke-linejoin="round" stroke-width="3">
    <line x1="62" x2="146" y1="502" y2="502"/>
    <circle cx="114" cy="502" fill="#fbfbfa" r="8"/>
    <line x1="62" x2="146" y1="530" y2="530"/>
    <circle cx="84" cy="530" fill="#fbfbfa" r="8"/>
    <line x1="62" x2="146" y1="558" y2="558"/>
    <circle cx="114" cy="558" fill="#fbfbfa" r="8"/>
  </g>
  <text fill="#d94b00" font-family="DejaVu Sans" font-size="31" font-weight="bold" text-anchor="middle" x="272" y="516">Engineering</text>
  <text fill="#d94b00" font-family="DejaVu Sans" font-size="31" font-weight="bold" text-anchor="middle" x="272" y="560">Variables</text>
  <text fill="#0b1835" font-family="DejaVu Sans" font-size="25" font-weight="normal" text-anchor="start" x="480" y="502">Engineering variables</text>
  <text fill="#d94b00" font-family="DejaVu Sans" font-size="25" font-weight="bold" text-anchor="start" x="480" y="535">specify</text>
  <text fill="#0b1835" font-family="DejaVu Sans" font-size="25" font-weight="normal" text-anchor="start" x="480" y="568">observable states.</text>
  <text fill="#d94b00" font-family="DejaVu Serif" font-size="45" font-weight="normal" style="font-style:italic" text-anchor="middle" x="900" y="540">V → S</text>
  <text fill="#d94b00" font-family="DejaVu Sans" font-size="29" font-weight="normal" text-anchor="start" x="1110" y="520">Constraint and</text>
  <text fill="#d94b00" font-family="DejaVu Sans" font-size="29" font-weight="normal" text-anchor="start" x="1110" y="560">Optimization</text>
  <g fill="none" stroke="#d94b00" stroke-linecap="round" stroke-linejoin="round" stroke-width="3">
    <path d="M 1368,555 A 42,42 0 0 1 1452,555"/>
    <line x1="1382.287187078898" x2="1373.6269330410537" y1="514.0" y2="509.0"/>
    <line x1="1394.0" x2="1389.0" y1="502.28718707889794" y2="493.6269330410536"/>
    <line x1="1410.0" x2="1410.0" y1="498.0" y2="488.0"/>
    <line x1="1426.0" x2="1431.0" y1="502.28718707889794" y2="493.6269330410536"/>
    <line x1="1437.712812921102" x2="1446.3730669589463" y1="514.0" y2="509.0"/>
    <line x1="1410" x2="1434" y1="540" y2="513"/>
    <circle cx="1410" cy="540" fill="#fbfbfa" r="7"/>
  </g>
  <line opacity="0.78" stroke="#4a238f" stroke-width="1.4" x1="38" x2="1498" y1="614" y2="614"/>
  <g fill="none" stroke="#4a238f" stroke-linecap="round" stroke-linejoin="round" stroke-width="3">
    <path d="M 56,694 Q 104,652 152,694 Q 104,736 56,694 Z"/>
    <circle cx="104" cy="694" r="16"/>
  </g>
  <text fill="#4a238f" font-family="DejaVu Sans" font-size="31" font-weight="bold" text-anchor="middle" x="272" y="680">Observable</text>
  <text fill="#4a238f" font-family="DejaVu Sans" font-size="31" font-weight="bold" text-anchor="middle" x="272" y="724">States</text>
  <text fill="#0b1835" font-family="DejaVu Sans" font-size="25" font-weight="normal" text-anchor="start" x="480" y="666">Observable states</text>
  <text fill="#4a238f" font-family="DejaVu Sans" font-size="25" font-weight="bold" text-anchor="start" x="480" y="699">specify</text>
  <text fill="#0b1835" font-family="DejaVu Sans" font-size="25" font-weight="normal" text-anchor="start" x="480" y="732">measured states.</text>
  <text fill="#4a238f" font-family="DejaVu Serif" font-size="45" font-weight="normal" style="font-style:italic" text-anchor="middle" x="900" y="704">S → M</text>
  <text fill="#4a238f" font-family="DejaVu Sans" font-size="29" font-weight="normal" text-anchor="start" x="1110" y="684">Measurement and</text>
  <text fill="#4a238f" font-family="DejaVu Sans" font-size="29" font-weight="normal" text-anchor="start" x="1110" y="724">Validation</text>
  <g fill="none" stroke="#4a238f" stroke-linecap="round" stroke-linejoin="round" stroke-width="3">
    <circle cx="1402" cy="686" r="31"/>
    <line x1="1424" x2="1450" y1="708" y2="734"/>
  </g>
  <line opacity="0.78" stroke="#00508c" stroke-width="1.4" x1="38" x2="1498" y1="778" y2="778"/>
  <g fill="none" stroke="#00508c" stroke-linecap="round" stroke-linejoin="round" stroke-width="3">
    <circle cx="104" cy="858" r="44"/>
    <path d="M 76,862 L 86,862 L 92,840 L 100,878 L 108,834 L 116,868 L 122,860 L 133,860"/>
  </g>
  <text fill="#00508c" font-family="DejaVu Sans" font-size="31" font-weight="bold" text-anchor="middle" x="272" y="844">Measured</text>
  <text fill="#00508c" font-family="DejaVu Sans" font-size="31" font-weight="bold" text-anchor="middle" x="272" y="888">States</text>
  <text fill="#0b1835" font-family="DejaVu Sans" font-size="25" font-weight="normal" text-anchor="start" x="480" y="830">Measured states</text>
  <text fill="#00508c" font-family="DejaVu Sans" font-size="25" font-weight="bold" text-anchor="start" x="480" y="863">inform</text>
  <text fill="#0b1835" font-family="DejaVu Sans" font-size="25" font-weight="normal" text-anchor="start" x="480" y="896">admissible generalizations.</text>
  <text fill="#00508c" font-family="DejaVu Serif" font-size="45" font-weight="normal" style="font-style:italic" text-anchor="middle" x="900" y="868">M → G</text>
  <text fill="#00508c" font-family="DejaVu Sans" font-size="29" font-weight="normal" text-anchor="start" x="1110" y="848">Learning and</text>
  <text fill="#00508c" font-family="DejaVu Sans" font-size="29" font-weight="normal" text-anchor="start" x="1110" y="888">Generalization</text>
  <g fill="none" stroke="#00508c" stroke-linecap="round" stroke-linejoin="round" stroke-width="3">
    <circle cx="1410" cy="858" r="44"/>
    <path d="M 1390,858 L 1405,874 L 1434,840"/>
  </g>
  <line stroke="#081d4f" stroke-width="2" x1="38" x2="356" y1="960" y2="960"/>
  <line stroke="#081d4f" stroke-width="2" x1="1180" x2="1498" y1="960" y2="960"/>
  <text fill="#081d4f" font-family="DejaVu Serif" font-size="30" font-weight="normal" text-anchor="middle" x="768.0" y="982">Admissible generalizations trail leading specifications.</text>
</svg>
