<?xml version="1.0" encoding="utf-8" ?>
<svg xmlns="http://www.w3.org/2000/svg" xmlns:ev="http://www.w3.org/2001/xml-events" xmlns:xlink="http://www.w3.org/1999/xlink" baseProfile="full" height="1024" version="1.1" viewBox="0 0 1536 1024" width="1536">
  <defs/>
  <rect fill="#fbfbfa" height="1024" width="1536" x="0" y="0"/>
  <text fill="#081d4f" font-family="DejaVu Serif" font-size="74" font-weight="normal" text-anchor="middle" x="768.0" y="82">Specification Grammar</text>
  <g fill="none" stroke="#081d4f" stroke-linecap="round" stroke-linejoin="round" stroke-width="3.2">
    <path d="M 76,159 H 113 L 132,178 V 245 H 76 Z"/>
    <path d="M 113,159 V 178 H 132"/>
    <line x1="90" x2="118" y1="187" y2="187"/>
    <line x1="90" x2="118" y1="202" y2="202"/>
    <line x1="90" x2="118" y1="217" y2="217"/>
  </g>
  <text fill="#081d4f" font-family="DejaVu Sans" font-size="31" font-weight="bold" text-anchor="middle" x="272" y="188">Leading</text>
  <text fill="#081d4f" font-family="DejaVu Sans" font-size="31" font-weight="bold" text-anchor="middle" x="272" y="232">Specifications</text>
  <text fill="#0b1835" font-family="DejaVu Sans" font-size="25" font-weight="normal" text-anchor="start" x="480" y="174">Leading specifications</text>
  <text fill="#081d4f" font-family="DejaVu Sans" font-size="25" font-weight="bold" text-anchor="start" x="480" y="207">specify</text>
  <text fill="#0b1835" font-family="DejaVu Sans" font-size="25" font-weight="normal" text-anchor="start" x="480" y="240">engineering objects.</text>
  <text fill="#081d4f" font-family="DejaVu Serif" font-size="45" font-weight="normal" style="font-style:italic" text-anchor="middle" x="900" y="212">L → O</text>
  <text fill="#081d4f" font-family="DejaVu Sans" font-size="29" font-weight="normal" text-anchor="start" x="1060" y="192">Context and</text>
  <text fill="#081d4f" font-family="DejaVu Sans" font-size="29" font-weight="normal" text-anchor="start" x="1060" y="232">Objective</text>
  <g fill="none" stroke="#081d4f" stroke-linecap="round" stroke-linejoin="round" stroke-width="3.2">
    <circle cx="1410" cy="202" r="42"/>
    <circle cx="1410" cy="202" r="24"/>
    <circle cx="1410" cy="202" r="8"/>
    <line x1="1360" x2="1378" y1="202" y2="202"/>
    <line x1="1442" x2="1460" y1="202" y2="202"/>
    <line x1="1410" x2="1410" y1="152" y2="170"/>
    <line x1="1410" x2="1410" y1="234" y2="252"/>
  </g>
  <line opacity="0.78" stroke="#0b5c1e" stroke-width="1.4" x1="38" x2="1498" y1="286" y2="286"/>
  <g fill="none" stroke="#0b5c1e" stroke-linecap="round" stroke-linejoin="round" stroke-width="3.2">
    <polygon points="104,324 140,345 140,389 104,410 68,389 68,345"/>
    <line x1="104" x2="104" y1="324" y2="366"/>
    <line x1="68" x2="104" y1="345" y2="366"/>
    <line x1="140" x2="104" y1="345" y2="366"/>
    <line x1="104" x2="104" y1="366" y2="410"/>
  </g>
  <text fill="#0b5c1e" font-family="DejaVu Sans" font-size="31" font-weight="bold" text-anchor="middle" x="272" y="352">Engineering</text>
  <text fill="#0b5c1e" font-family="DejaVu Sans" font-size="31" font-weight="bold" text-anchor="middle" x="272" y="396">Objects</text>
  <text fill="#0b1835" font-family="DejaVu Sans" font-size="25" font-weight="normal" text-anchor="start" x="480" y="338">Engineering objects</text>
  <text fill="#0b5c1e" font-family="DejaVu Sans" font-size="25" font-weight="bold" text-anchor="start" x="480" y="371">specify</text>
  <text fill="#0b1835" font-family="DejaVu Sans" font-size="25" font-weight="normal" text-anchor="start" x="480" y="404">engineering variables.</text>
  <text fill="#0b5c1e" font-family="DejaVu Serif" font-size="45" font-weight="normal" style="font-style:italic" text-anchor="middle" x="900" y="376">O → V</text>
  <text fill="#0b5c1e" font-family="DejaVu Sans" font-size="29" font-weight="normal" text-anchor="start" x="1060" y="356">Structure and</text>
  <text fill="#0b5c1e" font-family="DejaVu Sans" font-size="29" font-weight="normal" text-anchor="start" x="1060" y="396">Integration</text>
  <g fill="none" stroke="#0b5c1e" stroke-linecap="round" stroke-linejoin="round" stroke-width="3.2">
    <line x1="1410" x2="1380" y1="332" y2="392"/>
    <line x1="1410" x2="1440" y1="332" y2="392"/>
    <line x1="1380" x2="1440" y1="392" y2="392"/>
    <circle cx="1410" cy="332" fill="#fbfbfa" r="14"/>
    <circle cx="1380" cy="392" fill="#fbfbfa" r="14"/>
    <circle cx="1440" cy="392" fill="#fbfbfa" r="14"/>
  </g>
  <line opacity="0.78" stroke="#d94b00" stroke-width="1.4" x1="38" x2="1498" y1="450" y2="450"/>
  <g fill="none" stroke="#d94b00" stroke-linecap="round" stroke-linejoin="round" stroke-width="3.2">
    <line x1="62" x2="146" y1="503" y2="503"/>
    <circle cx="118" cy="503" fill="#fbfbfa" r="8"/>
    <line x1="62" x2="146" y1="530" y2="530"/>
    <circle cx="86" cy="530" fill="#fbfbfa" r="8"/>
    <line x1="62" x2="146" y1="557" y2="557"/>
    <circle cx="112" cy="557" fill="#fbfbfa" r="8"/>
  </g>
  <text fill="#d94b00" font-family="DejaVu Sans" font-size="31" font-weight="bold" text-anchor="middle" x="272" y="516">Engineering</text>
  <text fill="#d94b00" font-family="DejaVu Sans" font-size="31" font-weight="bold" text-anchor="middle" x="272" y="560">Variables</text>
  <text fill="#0b1835" font-family="DejaVu Sans" font-size="25" font-weight="normal" text-anchor="start" x="480" y="502">Engineering variables</text>
  <text fill="#d94b00" font-family="DejaVu Sans" font-size="25" font-weight="bold" text-anchor="start" x="480" y="535">specify</text>
  <text fill="#0b1835" font-family="DejaVu Sans" font-size="25" font-weight="normal" text-anchor="start" x="480" y="568">observable states.</text>
  <text fill="#d94b00" font-family="DejaVu Serif" font-size="45" font-weight="normal" style="font-style:italic" text-anchor="middle" x="900" y="540">V → S</text>
  <text fill="#d94b00" font-family="DejaVu Sans" font-size="29" font-weight="normal" text-anchor="start" x="1060" y="520">Constraint and</text>
  <text fill="#d94b00" font-family="DejaVu Sans" font-size="29" font-weight="normal" text-anchor="start" x="1060" y="560">Optimization</text>
  <g fill="none" stroke="#d94b00" stroke-linecap="round" stroke-linejoin="round" stroke-width="3.2">
    <path d="M 1368,555 A 42,42 0 0 1 1452,555"/>
    <line x1="1382.287187078898" x2="1373.6269330410537" y1="514.0" y2="509.0"/>
    <line x1="1394.0" x2="1389.0" y1="502.28718707889794" y2="493.6269330410536"/>
    <line x1="1410.0" x2="1410.0" y1="498.0" y2="488.0"/>
    <line x1="1426.0" x2="1431.0" y1="502.28718707889794" y2="493.6269330410536"/>
    <line x1="1437.712812921102" x2="1446.3730669589463" y1="514.0" y2="509.0"/>
    <line x1="1410" x2="1433" y1="542" y2="516"/>
    <circle cx="1410" cy="542" fill="#fbfbfa" r="7"/>
  </g>
  <line opacity="0.78" stroke="#4a238f" stroke-width="1.4" x1="38" x2="1498" y1="614" y2="614"/>
  <g fill="none" stroke="#4a238f" stroke-linecap="round" stroke-linejoin="round" stroke-width="3.2">
    <path d="M 58,694 Q 104,656 150,694 Q 104,732 58,694 Z"/>
    <circle cx="104" cy="694" r="15"/>
  </g>
  <text fill="#4a238f" font-family="DejaVu Sans" font-size="31" font-weight="bold" text-anchor="middle" x="272" y="680">Observable</text>
  <text fill="#4a238f" font-family="DejaVu Sans" font-size="31" font-weight="bold" text-anchor="middle" x="272" y="724">States</text>
  <text fill="#0b1835" font-family="DejaVu Sans" font-size="25" font-weight="normal" text-anchor="start" x="480" y="666">Observable states</text>
  <text fill="#4a238f" font-family="DejaVu Sans" font-size="25" font-weight="bold" text-anchor="start" x="480" y="699">specify</text>
  <text fill="#0b1835" font-family="DejaVu Sans" font-size="25" font-weight="normal" text-anchor="start" x="480" y="732">measured states.</text>
  <text fill="#4a238f" font-family="DejaVu Serif" font-size="45" font-weight="normal" style="font-style:italic" text-anchor="middle" x="900" y="704">S → M</text>
  <text fill="#4a238f" font-family="DejaVu Sans" font-size="29" font-weight="normal" text-anchor="start" x="1060" y="684">Measurement</text>
  <text fill="#4a238f" font-family="DejaVu Sans" font-size="29" font-weight="normal" text-anchor="start" x="1060" y="724">and Validation</text>
  <g fill="none" stroke="#4a238f" stroke-linecap="round" stroke-linejoin="round" stroke-width="3.2">
    <circle cx="1401" cy="685" r="30"/>
    <line x1="1423" x2="1449" y1="707" y2="733"/>
  </g>
  <line opacity="0.78" stroke="#00508c" stroke-width="1.4" x1="38" x2="1498" y1="778" y2="778"/>
  <g fill="none" stroke="#00508c" stroke-linecap="round" stroke-linejoin="round" stroke-width="3.2">
    <circle cx="104" cy="858" r="42"/>
    <path d="M 76,861 L 86,861 L 92,842 L 100,876 L 108,836 L 116,868 L 122,860 L 132,860"/>
  </g>
  <text fill="#00508c" font-family="DejaVu Sans" font-size="31" font-weight="bold" text-anchor="middle" x="272" y="844">Measured</text>
  <text fill="#00508c" font-family="DejaVu Sans" font-size="31" font-weight="bold" text-anchor="middle" x="272" y="888">States</text>
  <text fill="#0b1835" font-family="DejaVu Sans" font-size="25" font-weight="normal" text-anchor="start" x="480" y="830">Measured states</text>
  <text fill="#00508c" font-family="DejaVu Sans" font-size="25" font-weight="bold" text-anchor="start" x="480" y="863">inform</text>
  <text fill="#0b1835" font-family="DejaVu Sans" font-size="25" font-weight="normal" text-anchor="start" x="480" y="896">admissible generalizations.</text>
  <text fill="#00508c" font-family="DejaVu Serif" font-size="45" font-weight="normal" style="font-style:italic" text-anchor="middle" x="900" y="868">M → G</text>
  <text fill="#00508c" font-family="DejaVu Sans" font-size="29" font-weight="normal" text-anchor="start" x="1060" y="848">Learning and</text>
  <text fill="#00508c" font-family="DejaVu Sans" font-size="29" font-weight="normal" text-anchor="start" x="1060" y="888">Generalization</text>
  <g fill="none" stroke="#00508c" stroke-linecap="round" stroke-linejoin="round" stroke-width="3.2">
    <circle cx="1410" cy="858" r="42"/>
    <path d="M 1390,858 L 1405,873 L 1433,840"/>
  </g>
  <line stroke="#081d4f" stroke-width="2" x1="38" x2="356" y1="960" y2="960"/>
  <line stroke="#081d4f" stroke-width="2" x1="1180" x2="1498" y1="960" y2="960"/>
  <text fill="#081d4f" font-family="DejaVu Serif" font-size="30" font-weight="normal" text-anchor="middle" x="768.0" y="982">Admissible generalizations trail leading specifications.</text>
</svg>
